<svg width="224" height="36" viewBox="0 0 224 36" fill="none" xmlns="http://www.w3.org/2000/svg">
<path d="M62.352 27V10.2H64.944V24.504H72.816V27H62.352ZM76.7192 27V10.2H87.3032V12.696H79.3112V24.504H87.3032V27H76.7192ZM77.8952 19.632V17.136H85.9832V19.632H77.8952ZM91.4614 27V10.2H93.7894L104.061 23.952L103.677 24.168C103.565 23.512 103.469 22.752 103.389 21.888C103.325 21.024 103.277 20.072 103.245 19.032C103.213 17.992 103.197 16.888 103.197 15.72V10.2H105.789V27H103.413L93.3094 13.752L93.5734 13.416C93.6854 14.632 93.7734 15.632 93.8374 16.416C93.9014 17.184 93.9494 17.8 93.9814 18.264C94.0134 18.728 94.0294 19.096 94.0294 19.368C94.0454 19.624 94.0534 19.84 94.0534 20.016V27H91.4614ZM115.677 27.24C114.301 27.24 113.085 26.968 112.029 26.424C110.989 25.88 110.093 25.064 109.341 23.976L111.117 21.936C111.901 23.056 112.653 23.832 113.373 24.264C114.093 24.696 114.949 24.912 115.941 24.912C116.549 24.912 117.101 24.816 117.597 24.624C118.093 24.432 118.485 24.168 118.773 23.832C119.061 23.496 119.205 23.112 119.205 22.68C119.205 22.392 119.157 22.12 119.061 21.864C118.965 21.608 118.813 21.376 118.605 21.168C118.413 20.96 118.157 20.768 117.837 20.592C117.533 20.416 117.173 20.264 116.757 20.136C116.341 19.992 115.861 19.872 115.317 19.776C114.453 19.6 113.701 19.368 113.061 19.08C112.421 18.792 111.885 18.432 111.453 18C111.021 17.568 110.701 17.08 110.493 16.536C110.285 15.976 110.181 15.352 110.181 14.664C110.181 13.752 110.437 12.944 110.949 12.24C111.461 11.536 112.149 10.984 113.013 10.584C113.893 10.168 114.877 9.96 115.965 9.96C117.261 9.96 118.389 10.216 119.349 10.728C120.325 11.224 121.093 11.952 121.653 12.912L119.829 14.712C119.349 13.928 118.773 13.328 118.101 12.912C117.445 12.496 116.709 12.288 115.893 12.288C115.269 12.288 114.725 12.384 114.261 12.576C113.797 12.768 113.429 13.04 113.157 13.392C112.901 13.728 112.773 14.128 112.773 14.592C112.773 14.928 112.837 15.24 112.965 15.528C113.093 15.8 113.285 16.048 113.541 16.272C113.813 16.48 114.173 16.672 114.621 16.848C115.069 17.008 115.605 17.152 116.229 17.28C117.109 17.472 117.893 17.72 118.581 18.024C119.269 18.312 119.853 18.656 120.333 19.056C120.813 19.456 121.173 19.904 121.413 20.4C121.669 20.896 121.797 21.432 121.797 22.008C121.797 23.08 121.549 24.008 121.053 24.792C120.557 25.576 119.853 26.184 118.941 26.616C118.029 27.032 116.941 27.24 115.677 27.24ZM125.469 27V10.2H128.013L134.133 20.16L132.909 20.136L139.101 10.2H141.501V27H138.909V20.112C138.909 18.672 138.941 17.376 139.005 16.224C139.085 15.072 139.213 13.928 139.389 12.792L139.725 13.68L134.229 22.176H132.645L127.317 13.776L127.581 12.792C127.757 13.864 127.877 14.968 127.941 16.104C128.021 17.224 128.061 18.56 128.061 20.112V27H125.469ZM144.459 27L150.963 10.2H153.603L160.059 27H157.299L153.459 16.872C153.411 16.76 153.315 16.488 153.171 16.056C153.043 15.624 152.891 15.144 152.715 14.616C152.539 14.088 152.379 13.608 152.235 13.176C152.091 12.728 151.995 12.44 151.947 12.312L152.499 12.288C152.403 12.56 152.283 12.904 152.139 13.32C152.011 13.736 151.867 14.176 151.707 14.64C151.563 15.104 151.419 15.544 151.275 15.96C151.131 16.36 151.011 16.696 150.915 16.968L147.099 27H144.459ZM147.339 22.824L148.299 20.328H155.931L157.035 22.824H147.339ZM163.016 27V10.2H170.168C171.128 10.2 172.008 10.44 172.808 10.92C173.624 11.384 174.272 12.024 174.752 12.84C175.232 13.64 175.472 14.544 175.472 15.552C175.472 16.464 175.232 17.312 174.752 18.096C174.272 18.88 173.632 19.512 172.832 19.992C172.032 20.456 171.144 20.688 170.168 20.688H165.608V27H163.016ZM173 27L168.728 19.416L171.392 18.816L176.144 27.024L173 27ZM165.608 18.192H170.408C170.872 18.192 171.288 18.08 171.656 17.856C172.024 17.616 172.312 17.296 172.52 16.896C172.728 16.48 172.832 16.024 172.832 15.528C172.832 14.968 172.696 14.48 172.424 14.064C172.168 13.632 171.8 13.296 171.32 13.056C170.856 12.816 170.328 12.696 169.736 12.696H165.608V18.192ZM181.864 21.912L181.72 19.008L190.528 10.2H193.936L181.864 21.912ZM179.704 27V10.2H182.296V27H179.704ZM190.84 27L184.408 18.408L186.328 16.752L194.08 27H190.84ZM197.282 27V10.2H207.866V12.696H199.874V24.504H207.866V27H197.282ZM198.458 19.632V17.136H206.546V19.632H198.458ZM215.216 27V12.696H210.512V10.2H222.656V12.696H217.808V27H215.216Z" fill="#060604"/>
<path d="M62.352 27H61.352V28H62.352V27ZM62.352 10.2V9.2H61.352V10.2H62.352ZM64.944 10.2H65.944V9.2H64.944V10.2ZM64.944 24.504H63.944V25.504H64.944V24.504ZM72.816 24.504H73.816V23.504H72.816V24.504ZM72.816 27V28H73.816V27H72.816ZM63.352 27V10.2H61.352V27H63.352ZM62.352 11.2H64.944V9.2H62.352V11.2ZM63.944 10.2V24.504H65.944V10.2H63.944ZM64.944 25.504H72.816V23.504H64.944V25.504ZM71.816 24.504V27H73.816V24.504H71.816ZM72.816 26H62.352V28H72.816V26ZM76.7192 27H75.7192V28H76.7192V27ZM76.7192 10.2V9.2H75.7192V10.2H76.7192ZM87.3032 10.2H88.3032V9.2H87.3032V10.2ZM87.3032 12.696V13.696H88.3032V12.696H87.3032ZM79.3112 12.696V11.696H78.3112V12.696H79.3112ZM79.3112 24.504H78.3112V25.504H79.3112V24.504ZM87.3032 24.504H88.3032V23.504H87.3032V24.504ZM87.3032 27V28H88.3032V27H87.3032ZM77.8952 19.632H76.8952V20.632H77.8952V19.632ZM77.8952 17.136V16.136H76.8952V17.136H77.8952ZM85.9832 17.136H86.9832V16.136H85.9832V17.136ZM85.9832 19.632V20.632H86.9832V19.632H85.9832ZM77.7192 27V10.2H75.7192V27H77.7192ZM76.7192 11.2H87.3032V9.2H76.7192V11.2ZM86.3032 10.2V12.696H88.3032V10.2H86.3032ZM87.3032 11.696H79.3112V13.696H87.3032V11.696ZM78.3112 12.696V24.504H80.3112V12.696H78.3112ZM79.3112 25.504H87.3032V23.504H79.3112V25.504ZM86.3032 24.504V27H88.3032V24.504H86.3032ZM87.3032 26H76.7192V28H87.3032V26ZM78.8952 19.632V17.136H76.8952V19.632H78.8952ZM77.8952 18.136H85.9832V16.136H77.8952V18.136ZM84.9832 17.136V19.632H86.9832V17.136H84.9832ZM85.9832 18.632H77.8952V20.632H85.9832V18.632ZM91.4614 27H90.4614V28H91.4614V27ZM91.4614 10.2V9.2H90.4614V10.2H91.4614ZM93.7894 10.2L94.5905 9.60157L94.2906 9.2H93.7894V10.2ZM104.061 23.952L104.552 24.8236L105.544 24.2655L104.863 23.3536L104.061 23.952ZM103.677 24.168L102.692 24.3363L102.931 25.7355L104.168 25.0396L103.677 24.168ZM103.389 21.888L102.392 21.9619L102.393 21.971L102.394 21.9802L103.389 21.888ZM103.245 19.032L104.245 19.0012V19.0012L103.245 19.032ZM103.197 10.2V9.2H102.197V10.2H103.197ZM105.789 10.2H106.789V9.2H105.789V10.2ZM105.789 27V28H106.789V27H105.789ZM103.413 27L102.618 27.6064L102.918 28H103.413V27ZM93.3094 13.752L92.5231 13.1342L92.0448 13.7429L92.5142 14.3584L93.3094 13.752ZM93.5734 13.416L94.5692 13.3243L94.3388 10.8232L92.7871 12.7982L93.5734 13.416ZM93.8374 16.416L92.8407 16.4974L92.8408 16.499L93.8374 16.416ZM93.9814 18.264L94.979 18.1952L93.9814 18.264ZM94.0294 19.368H93.0294V19.3992L93.0313 19.4304L94.0294 19.368ZM94.0534 27V28H95.0534V27H94.0534ZM92.4614 27V10.2H90.4614V27H92.4614ZM91.4614 11.2H93.7894V9.2H91.4614V11.2ZM92.9882 10.7984L103.26 24.5504L104.863 23.3536L94.5905 9.60157L92.9882 10.7984ZM103.571 23.0804L103.187 23.2964L104.168 25.0396L104.552 24.8236L103.571 23.0804ZM104.663 23.9997C104.556 23.3752 104.463 22.6415 104.385 21.7958L102.394 21.9802C102.475 22.8625 102.574 23.6488 102.692 24.3363L104.663 23.9997ZM104.387 21.8141C104.324 20.967 104.277 20.0296 104.245 19.0012L102.246 19.0628C102.278 20.1144 102.327 21.081 102.392 21.9619L104.387 21.8141ZM104.245 19.0012C104.213 17.9726 104.197 16.879 104.197 15.72H102.197C102.197 16.897 102.213 18.0114 102.246 19.0628L104.245 19.0012ZM104.197 15.72V10.2H102.197V15.72H104.197ZM103.197 11.2H105.789V9.2H103.197V11.2ZM104.789 10.2V27H106.789V10.2H104.789ZM105.789 26H103.413V28H105.789V26ZM104.209 26.3936L94.1045 13.1456L92.5142 14.3584L102.618 27.6064L104.209 26.3936ZM94.0957 14.3698L94.3597 14.0338L92.7871 12.7982L92.5231 13.1342L94.0957 14.3698ZM92.5776 13.5077C92.6894 14.7219 92.7771 15.7181 92.8407 16.4974L94.8341 16.3346C94.7697 15.5459 94.6813 14.5421 94.5692 13.3243L92.5776 13.5077ZM92.8408 16.499C92.9047 17.2649 92.9522 17.8756 92.9837 18.3328L94.979 18.1952C94.9465 17.7244 94.8981 17.1031 94.8339 16.333L92.8408 16.499ZM92.9837 18.3328C93.0151 18.7875 93.0294 19.1294 93.0294 19.368H95.0294C95.0294 19.0626 95.0117 18.6685 94.979 18.1952L92.9837 18.3328ZM93.0313 19.4304C93.0466 19.6741 93.0534 19.8678 93.0534 20.016H95.0534C95.0534 19.8122 95.0442 19.5739 95.0274 19.3056L93.0313 19.4304ZM93.0534 20.016V27H95.0534V20.016H93.0534ZM94.0534 26H91.4614V28H94.0534V26ZM112.029 26.424L111.565 27.3101L111.571 27.313L112.029 26.424ZM109.341 23.976L108.586 23.3194L108.076 23.9054L108.518 24.5446L109.341 23.976ZM111.117 21.936L111.936 21.3625L111.202 20.3146L110.362 21.2794L111.117 21.936ZM113.373 24.264L113.887 23.4065L113.373 24.264ZM117.597 24.624L117.958 25.5566L117.597 24.624ZM118.773 23.832L119.532 24.4828L118.773 23.832ZM119.061 21.864L118.124 22.2151L118.124 22.2151L119.061 21.864ZM118.605 21.168L117.87 21.8463L117.883 21.861L117.898 21.8751L118.605 21.168ZM117.837 20.592L117.336 21.4574L117.345 21.4629L117.355 21.4682L117.837 20.592ZM116.757 20.136L116.43 21.081L116.446 21.0867L116.463 21.0918L116.757 20.136ZM115.317 19.776L115.117 20.7559L115.13 20.7585L115.143 20.7608L115.317 19.776ZM113.061 19.08L113.471 18.1681L113.061 19.08ZM111.453 18L112.16 17.2929L111.453 18ZM110.493 16.536L109.555 16.8842L109.559 16.8931L110.493 16.536ZM110.949 12.24L111.757 12.8282V12.8282L110.949 12.24ZM113.013 10.584L113.433 11.4915L113.44 11.4881L113.013 10.584ZM119.349 10.728L118.878 11.6104L118.887 11.615L118.896 11.6195L119.349 10.728ZM121.653 12.912L122.355 13.6238L122.908 13.0786L122.516 12.4081L121.653 12.912ZM119.829 14.712L118.976 15.2342L119.634 16.3091L120.531 15.4238L119.829 14.712ZM118.101 12.912L117.565 13.7566L117.574 13.7623L118.101 12.912ZM114.261 12.576L114.643 13.5L114.643 13.5L114.261 12.576ZM113.157 13.392L112.365 12.7805L112.361 12.786L113.157 13.392ZM112.965 15.528L112.051 15.9341L112.055 15.944L112.06 15.9538L112.965 15.528ZM113.541 16.272L112.882 17.0246L112.907 17.0463L112.933 17.0664L113.541 16.272ZM114.621 16.848L114.255 17.7788L114.27 17.7845L114.284 17.7897L114.621 16.848ZM116.229 17.28L116.442 16.3029L116.43 16.3004L116.229 17.28ZM118.581 18.024L118.176 18.9387L118.185 18.9427L118.194 18.9464L118.581 18.024ZM120.333 19.056L120.973 18.2878L120.333 19.056ZM121.413 20.4L120.512 20.8356L120.518 20.8472L120.524 20.8586L121.413 20.4ZM121.053 24.792L121.898 25.3266L121.053 24.792ZM118.941 26.616L119.356 27.5258L119.362 27.5228L119.369 27.5197L118.941 26.616ZM115.677 26.24C114.435 26.24 113.38 25.9953 112.487 25.535L111.571 27.313C112.789 27.9407 114.167 28.24 115.677 28.24V26.24ZM112.492 25.5379C111.613 25.0782 110.835 24.3792 110.163 23.4074L108.518 24.5446C109.35 25.7488 110.364 26.6818 111.565 27.3101L112.492 25.5379ZM110.095 24.6326L111.871 22.5926L110.362 21.2794L108.586 23.3194L110.095 24.6326ZM110.297 22.5095C111.117 23.6809 111.965 24.5859 112.858 25.1215L113.887 23.4065C113.34 23.0781 112.684 22.4311 111.936 21.3625L110.297 22.5095ZM112.858 25.1215C113.76 25.6625 114.801 25.912 115.941 25.912V23.912C115.097 23.912 114.426 23.7295 113.887 23.4065L112.858 25.1215ZM115.941 25.912C116.655 25.912 117.331 25.799 117.958 25.5566L117.236 23.6914C116.87 23.833 116.443 23.912 115.941 23.912V25.912ZM117.958 25.5566C118.577 25.3169 119.117 24.9671 119.532 24.4828L118.013 23.1812C117.853 23.3689 117.609 23.5471 117.236 23.6914L117.958 25.5566ZM119.532 24.4828C119.971 23.9704 120.205 23.357 120.205 22.68H118.205C118.205 22.867 118.15 23.0216 118.013 23.1812L119.532 24.4828ZM120.205 22.68C120.205 22.2786 120.137 21.8871 119.997 21.5129L118.124 22.2151C118.176 22.3529 118.205 22.5054 118.205 22.68H120.205ZM119.997 21.5129C119.847 21.1133 119.613 20.7621 119.312 20.4609L117.898 21.8751C118.012 21.9899 118.082 22.1027 118.124 22.2151L119.997 21.5129ZM119.339 20.4897C119.057 20.1834 118.707 19.9294 118.319 19.7158L117.355 21.4682C117.606 21.6066 117.769 21.7366 117.87 21.8463L119.339 20.4897ZM118.338 19.7266C117.955 19.505 117.522 19.3254 117.051 19.1802L116.463 21.0918C116.823 21.2026 117.11 21.327 117.336 21.4574L118.338 19.7266ZM117.084 19.191C116.607 19.026 116.074 18.8942 115.49 18.7912L115.143 20.7608C115.647 20.8498 116.074 20.958 116.43 21.081L117.084 19.191ZM115.516 18.7961C114.707 18.6313 114.029 18.4191 113.471 18.1681L112.65 19.9919C113.372 20.3169 114.198 20.5687 115.117 20.7559L115.516 18.7961ZM113.471 18.1681C112.925 17.9225 112.494 17.6275 112.16 17.2929L110.746 18.7071C111.275 19.2365 111.916 19.6615 112.65 19.9919L113.471 18.1681ZM112.16 17.2929C111.822 16.9553 111.582 16.5851 111.427 16.1789L109.559 16.8931C109.819 17.5749 110.219 18.1807 110.746 18.7071L112.16 17.2929ZM111.43 16.1878C111.269 15.7548 111.181 15.2509 111.181 14.664H109.181C109.181 15.4531 109.3 16.1972 109.555 16.8842L111.43 16.1878ZM111.181 14.664C111.181 13.9526 111.376 13.3528 111.757 12.8282L110.14 11.6518C109.497 12.5352 109.181 13.5514 109.181 14.664H111.181ZM111.757 12.8282C112.16 12.2746 112.709 11.8268 113.433 11.4915L112.593 9.67653C111.589 10.1412 110.761 10.7974 110.14 11.6518L111.757 12.8282ZM113.44 11.4881C114.171 11.1423 115.007 10.96 115.965 10.96V8.96C114.746 8.96 113.614 9.19368 112.585 9.67993L113.44 11.4881ZM115.965 10.96C117.128 10.96 118.088 11.1891 118.878 11.6104L119.819 9.84565C118.689 9.24292 117.393 8.96 115.965 8.96V10.96ZM118.896 11.6195C119.698 12.027 120.324 12.6192 120.789 13.4159L122.516 12.4081C121.861 11.2848 120.952 10.421 119.802 9.83651L118.896 11.6195ZM120.95 12.2002L119.126 14.0002L120.531 15.4238L122.355 13.6238L120.95 12.2002ZM120.681 14.1898C120.133 13.2942 119.452 12.5725 118.627 12.0617L117.574 13.7623C118.093 14.0835 118.564 14.5618 118.976 15.2342L120.681 14.1898ZM118.636 12.0675C117.812 11.5447 116.888 11.288 115.893 11.288V13.288C116.529 13.288 117.078 13.4473 117.565 13.7565L118.636 12.0675ZM115.893 11.288C115.168 11.288 114.489 11.3992 113.878 11.652L114.643 13.5C114.96 13.3687 115.369 13.288 115.893 13.288V11.288ZM113.878 11.652C113.274 11.9019 112.757 12.2734 112.365 12.7806L113.948 14.0034C114.1 13.8066 114.319 13.6341 114.643 13.5L113.878 11.652ZM112.361 12.786C111.959 13.3134 111.773 13.9318 111.773 14.592H113.773C113.773 14.3242 113.842 14.1426 113.952 13.998L112.361 12.786ZM111.773 14.592C111.773 15.0585 111.862 15.51 112.051 15.9341L113.878 15.1219C113.811 14.97 113.773 14.7975 113.773 14.592H111.773ZM112.06 15.9538C112.254 16.3659 112.536 16.7217 112.882 17.0246L114.199 15.5194C114.033 15.3743 113.931 15.2341 113.869 15.1022L112.06 15.9538ZM112.933 17.0664C113.302 17.3485 113.753 17.5814 114.255 17.7788L114.986 15.9172C114.593 15.7626 114.323 15.6115 114.148 15.4776L112.933 17.0664ZM114.284 17.7897C114.788 17.9698 115.372 18.1251 116.028 18.2596L116.43 16.3004C115.837 16.1789 115.349 16.0462 114.957 15.9063L114.284 17.7897ZM116.015 18.257C116.842 18.4374 117.56 18.6665 118.176 18.9387L118.985 17.1093C118.225 16.7735 117.375 16.5066 116.442 16.303L116.015 18.257ZM118.194 18.9464C118.808 19.2032 119.302 19.4989 119.692 19.8242L120.973 18.2878C120.403 17.8131 119.729 17.4208 118.967 17.1016L118.194 18.9464ZM119.692 19.8242C120.078 20.1453 120.342 20.4838 120.512 20.8356L122.313 19.9644C122.003 19.3242 121.548 18.7667 120.973 18.2878L119.692 19.8242ZM120.524 20.8586C120.704 21.2082 120.797 21.5863 120.797 22.008H122.797C122.797 21.2777 122.633 20.5838 122.301 19.9414L120.524 20.8586ZM120.797 22.008C120.797 22.9208 120.587 23.657 120.208 24.2574L121.898 25.3266C122.51 24.359 122.797 23.2392 122.797 22.008H120.797ZM120.208 24.2574C119.822 24.8673 119.269 25.3539 118.513 25.7123L119.369 27.5197C120.436 27.0141 121.292 26.2847 121.898 25.3266L120.208 24.2574ZM118.526 25.7062C117.773 26.0494 116.834 26.24 115.677 26.24V28.24C117.048 28.24 118.284 28.0146 119.356 27.5258L118.526 25.7062ZM125.469 27H124.469V28H125.469V27ZM125.469 10.2V9.2H124.469V10.2H125.469ZM128.013 10.2L128.865 9.67647L128.572 9.2H128.013V10.2ZM134.133 20.16L134.114 21.1598L135.943 21.1957L134.985 19.6365L134.133 20.16ZM132.909 20.136L132.061 19.6071L131.129 21.1013L132.89 21.1358L132.909 20.136ZM139.101 10.2V9.2H138.546L138.253 9.67111L139.101 10.2ZM141.501 10.2H142.501V9.2H141.501V10.2ZM141.501 27V28H142.501V27H141.501ZM138.909 27H137.909V28H138.909V27ZM139.005 16.224L138.007 16.1547L138.007 16.1685L139.005 16.224ZM139.389 12.792L140.324 12.4381L138.982 8.88971L138.401 12.6389L139.389 12.792ZM139.725 13.68L140.565 14.2232L140.839 13.7988L140.66 13.3261L139.725 13.68ZM134.229 22.176V23.176H134.773L135.069 22.7192L134.229 22.176ZM132.645 22.176L131.801 22.7116L132.095 23.176H132.645V22.176ZM127.317 13.776L126.351 13.5169L126.238 13.9409L126.473 14.3116L127.317 13.776ZM127.581 12.792L128.568 12.63L126.615 12.5329L127.581 12.792ZM127.941 16.104L126.943 16.1602L126.943 16.1678L126.944 16.1752L127.941 16.104ZM128.061 27V28H129.061V27H128.061ZM126.469 27V10.2H124.469V27H126.469ZM125.469 11.2H128.013V9.2H125.469V11.2ZM127.161 10.7235L133.281 20.6835L134.985 19.6365L128.865 9.67647L127.161 10.7235ZM134.153 19.1602L132.929 19.1362L132.89 21.1358L134.114 21.1598L134.153 19.1602ZM133.758 20.6649L139.95 10.7289L138.253 9.67111L132.061 19.6071L133.758 20.6649ZM139.101 11.2H141.501V9.2H139.101V11.2ZM140.501 10.2V27H142.501V10.2H140.501ZM141.501 26H138.909V28H141.501V26ZM139.909 27V20.112H137.909V27H139.909ZM139.909 20.112C139.909 18.6862 139.941 17.4091 140.004 16.2795L138.007 16.1685C137.941 17.3429 137.909 18.6578 137.909 20.112H139.909ZM140.003 16.2933C140.081 15.1692 140.206 14.0532 140.377 12.9451L138.401 12.6389C138.221 13.8028 138.09 14.9748 138.008 16.1547L140.003 16.2933ZM138.454 13.1459L138.79 14.0339L140.66 13.3261L140.324 12.4381L138.454 13.1459ZM138.886 13.1368L133.39 21.6328L135.069 22.7192L140.565 14.2232L138.886 13.1368ZM134.229 21.176H132.645V23.176H134.229V21.176ZM133.49 21.6404L128.162 13.2404L126.473 14.3116L131.801 22.7116L133.49 21.6404ZM128.283 14.0351L128.547 13.0511L126.615 12.5329L126.351 13.5169L128.283 14.0351ZM126.594 12.954C126.764 13.9894 126.881 15.058 126.943 16.1602L128.94 16.0478C128.874 14.878 128.75 13.7386 128.568 12.63L126.594 12.954ZM126.944 16.1752C127.022 17.2645 127.061 18.5755 127.061 20.112H129.061C129.061 18.5445 129.021 17.1835 128.939 16.0328L126.944 16.1752ZM127.061 20.112V27H129.061V20.112H127.061ZM128.061 26H125.469V28H128.061V26ZM144.459 27L143.527 26.639L143 28H144.459V27ZM150.963 10.2V9.2H150.278L150.031 9.83897L150.963 10.2ZM153.603 10.2L154.537 9.84129L154.29 9.2H153.603V10.2ZM160.059 27V28H161.515L160.993 26.6413L160.059 27ZM157.299 27L156.364 27.3545L156.609 28H157.299V27ZM153.459 16.872L154.394 16.5175L154.387 16.4976L154.379 16.4781L153.459 16.872ZM153.171 16.056L152.213 16.3401L152.217 16.3562L152.223 16.3722L153.171 16.056ZM152.715 14.616L153.664 14.2998H153.664L152.715 14.616ZM152.235 13.176L151.283 13.482L151.287 13.4922L152.235 13.176ZM151.947 12.312L151.904 11.3129L150.527 11.3728L151.011 12.6631L151.947 12.312ZM152.499 12.288L153.442 12.6208L153.935 11.2246L152.456 11.2889L152.499 12.288ZM152.139 13.32L151.194 12.9929L151.189 13.0093L151.184 13.0259L152.139 13.32ZM151.707 14.64L150.762 14.314L150.757 14.3287L150.752 14.3436L151.707 14.64ZM151.275 15.96L152.216 16.2987L152.22 16.2871L151.275 15.96ZM150.915 16.968L151.85 17.3235L151.854 17.3122L151.858 17.3008L150.915 16.968ZM147.099 27V28H147.789L148.034 27.3555L147.099 27ZM147.339 22.824L146.406 22.465L145.883 23.824H147.339V22.824ZM148.299 20.328V19.328H147.613L147.366 19.969L148.299 20.328ZM155.931 20.328L156.846 19.9235L156.583 19.328H155.931V20.328ZM157.035 22.824V23.824H158.571L157.95 22.4195L157.035 22.824ZM145.392 27.361L151.896 10.561L150.031 9.83897L143.527 26.639L145.392 27.361ZM150.963 11.2H153.603V9.2H150.963V11.2ZM152.67 10.5587L159.126 27.3587L160.993 26.6413L154.537 9.84129L152.67 10.5587ZM160.059 26H157.299V28H160.059V26ZM158.234 26.6455L154.394 16.5175L152.524 17.2265L156.364 27.3545L158.234 26.6455ZM154.379 16.4781C154.35 16.4125 154.268 16.1847 154.12 15.7398L152.223 16.3722C152.362 16.7913 152.472 17.1075 152.54 17.2659L154.379 16.4781ZM154.13 15.7719C153.998 15.327 153.843 14.8361 153.664 14.2998L151.767 14.9322C151.94 15.4519 152.088 15.921 152.213 16.3401L154.13 15.7719ZM153.664 14.2998C153.488 13.7718 153.328 13.2918 153.184 12.8598L151.287 13.4922C151.431 13.9242 151.591 14.4042 151.767 14.9322L153.664 14.2998ZM153.187 12.87C153.045 12.4281 152.942 12.1157 152.884 11.9609L151.011 12.6631C151.049 12.7643 151.137 13.0279 151.283 13.482L153.187 12.87ZM151.991 13.3111L152.543 13.2871L152.456 11.2889L151.904 11.3129L151.991 13.3111ZM151.556 11.9552C151.459 12.2298 151.339 12.5759 151.194 12.9929L153.084 13.6471C153.228 13.2321 153.347 12.8902 153.442 12.6208L151.556 11.9552ZM151.184 13.0259C151.059 13.43 150.919 13.8593 150.762 14.314L152.653 14.966C152.816 14.4927 152.963 14.042 153.095 13.6141L151.184 13.0259ZM150.752 14.3436C150.611 14.7983 150.471 15.228 150.33 15.6329L152.22 16.2871C152.368 15.8599 152.516 15.4096 152.662 14.9364L150.752 14.3436ZM150.334 15.6213C150.19 16.0224 150.069 16.3605 149.972 16.6352L151.858 17.3008C151.953 17.0315 152.073 16.6976 152.216 16.2987L150.334 15.6213ZM149.981 16.6125L146.165 26.6445L148.034 27.3555L151.85 17.3235L149.981 16.6125ZM147.099 26H144.459V28H147.099V26ZM148.273 23.183L149.233 20.687L147.366 19.969L146.406 22.465L148.273 23.183ZM148.299 21.328H155.931V19.328H148.299V21.328ZM155.017 20.7325L156.121 23.2285L157.95 22.4195L156.846 19.9235L155.017 20.7325ZM157.035 21.824H147.339V23.824H157.035V21.824ZM163.016 27H162.016V28H163.016V27ZM163.016 10.2V9.2H162.016V10.2H163.016ZM172.808 10.92L172.294 11.7775L172.304 11.7835L172.314 11.7893L172.808 10.92ZM174.752 12.84L173.89 13.347L173.895 13.3545L174.752 12.84ZM174.752 18.096L173.899 17.5738V17.5738L174.752 18.096ZM172.832 19.992L173.334 20.857L173.34 20.8533L173.347 20.8495L172.832 19.992ZM165.608 20.688V19.688H164.608V20.688H165.608ZM165.608 27V28H166.608V27H165.608ZM173 27L172.129 27.4908L172.413 27.9955L172.992 28L173 27ZM168.728 19.416L168.508 18.4404L167.197 18.7358L167.857 19.9068L168.728 19.416ZM171.392 18.816L172.257 18.315L171.889 17.679L171.172 17.8404L171.392 18.816ZM176.144 27.024L176.136 28.024L177.886 28.0373L177.009 26.523L176.144 27.024ZM165.608 18.192H164.608V19.192H165.608V18.192ZM171.656 17.856L172.176 18.7102L172.189 18.7021L172.202 18.6936L171.656 17.856ZM172.52 16.896L173.407 17.3574L173.411 17.3503L173.414 17.3432L172.52 16.896ZM172.424 14.064L171.564 14.5738L171.575 14.5928L171.587 14.6112L172.424 14.064ZM171.32 13.056L170.861 13.9443L170.873 13.9504L171.32 13.056ZM165.608 12.696V11.696H164.608V12.696H165.608ZM164.016 27V10.2H162.016V27H164.016ZM163.016 11.2H170.168V9.2H163.016V11.2ZM170.168 11.2C170.952 11.2 171.654 11.3935 172.294 11.7775L173.323 10.0625C172.362 9.48646 171.304 9.2 170.168 9.2V11.2ZM172.314 11.7893C172.976 12.166 173.498 12.6805 173.89 13.347L175.614 12.333C175.046 11.3675 174.272 10.602 173.302 10.0507L172.314 11.7893ZM173.895 13.3545C174.274 13.9866 174.472 14.7101 174.472 15.552H176.472C176.472 14.3779 176.19 13.2934 175.61 12.3255L173.895 13.3545ZM174.472 15.552C174.472 16.2782 174.284 16.9457 173.899 17.5738L175.605 18.6182C176.18 17.6783 176.472 16.6498 176.472 15.552H174.472ZM173.899 17.5738C173.505 18.2183 172.982 18.7361 172.318 19.1345L173.347 20.8495C174.283 20.2879 175.039 19.5417 175.605 18.6182L173.899 17.5738ZM172.33 19.127C171.691 19.4976 170.978 19.688 170.168 19.688V21.688C171.31 21.688 172.373 21.4144 173.334 20.857L172.33 19.127ZM170.168 19.688H165.608V21.688H170.168V19.688ZM164.608 20.688V27H166.608V20.688H164.608ZM165.608 26H163.016V28H165.608V26ZM173.871 26.5092L169.599 18.9252L167.857 19.9068L172.129 27.4908L173.871 26.5092ZM168.948 20.3916L171.612 19.7916L171.172 17.8404L168.508 18.4404L168.948 20.3916ZM170.527 19.317L175.279 27.525L177.009 26.523L172.257 18.315L170.527 19.317ZM176.152 26.024L173.008 26L172.992 28L176.136 28.024L176.152 26.024ZM165.608 19.192H170.408V17.192H165.608V19.192ZM170.408 19.192C171.041 19.192 171.639 19.0369 172.176 18.7102L171.136 17.0018C170.937 17.1231 170.703 17.192 170.408 17.192V19.192ZM172.202 18.6936C172.718 18.3571 173.122 17.9058 173.407 17.3574L171.633 16.4346C171.502 16.6862 171.33 16.8749 171.11 17.0184L172.202 18.6936ZM173.414 17.3432C173.696 16.7792 173.832 16.1687 173.832 15.528H171.832C171.832 15.8793 171.76 16.1808 171.626 16.4488L173.414 17.3432ZM173.832 15.528C173.832 14.799 173.653 14.1155 173.261 13.5167L171.587 14.6112C171.74 14.8445 171.832 15.137 171.832 15.528H173.832ZM173.284 13.5542C172.924 12.9455 172.407 12.4813 171.767 12.1616L170.873 13.9504C171.193 14.1107 171.412 14.3185 171.564 14.5738L173.284 13.5542ZM171.779 12.1678C171.156 11.8451 170.466 11.696 169.736 11.696V13.696C170.19 13.696 170.557 13.7869 170.861 13.9442L171.779 12.1678ZM169.736 11.696H165.608V13.696H169.736V11.696ZM164.608 12.696V18.192H166.608V12.696H164.608ZM181.864 21.912L180.865 21.9615L180.974 24.1681L182.56 22.6297L181.864 21.912ZM181.72 19.008L181.012 18.3009L180.699 18.6145L180.721 19.0575L181.72 19.008ZM190.528 10.2V9.2H190.113L189.82 9.49289L190.528 10.2ZM193.936 10.2L194.632 10.9177L196.402 9.2H193.936V10.2ZM179.704 27H178.704V28H179.704V27ZM179.704 10.2V9.2H178.704V10.2H179.704ZM182.296 10.2H183.296V9.2H182.296V10.2ZM182.296 27V28H183.296V27H182.296ZM190.84 27L190.039 27.5993L190.339 28H190.84V27ZM184.408 18.408L183.754 17.6508L183.048 18.2602L183.607 19.0073L184.408 18.408ZM186.328 16.752L187.125 16.1487L186.482 15.2984L185.674 15.9948L186.328 16.752ZM194.08 27V28H196.09L194.877 26.3967L194.08 27ZM182.862 21.8625L182.718 18.9585L180.721 19.0575L180.865 21.9615L182.862 21.8625ZM182.427 19.7151L191.235 10.9071L189.82 9.49289L181.012 18.3009L182.427 19.7151ZM190.528 11.2H193.936V9.2H190.528V11.2ZM193.239 9.48227L181.167 21.1943L182.56 22.6297L194.632 10.9177L193.239 9.48227ZM180.704 27V10.2H178.704V27H180.704ZM179.704 11.2H182.296V9.2H179.704V11.2ZM181.296 10.2V27H183.296V10.2H181.296ZM182.296 26H179.704V28H182.296V26ZM191.64 26.4007L185.208 17.8087L183.607 19.0073L190.039 27.5993L191.64 26.4007ZM185.061 19.1652L186.981 17.5092L185.674 15.9948L183.754 17.6508L185.061 19.1652ZM185.53 17.3553L193.282 27.6033L194.877 26.3967L187.125 16.1487L185.53 17.3553ZM194.08 26H190.84V28H194.08V26ZM197.282 27H196.282V28H197.282V27ZM197.282 10.2V9.2H196.282V10.2H197.282ZM207.866 10.2H208.866V9.2H207.866V10.2ZM207.866 12.696V13.696H208.866V12.696H207.866ZM199.874 12.696V11.696H198.874V12.696H199.874ZM199.874 24.504H198.874V25.504H199.874V24.504ZM207.866 24.504H208.866V23.504H207.866V24.504ZM207.866 27V28H208.866V27H207.866ZM198.458 19.632H197.458V20.632H198.458V19.632ZM198.458 17.136V16.136H197.458V17.136H198.458ZM206.546 17.136H207.546V16.136H206.546V17.136ZM206.546 19.632V20.632H207.546V19.632H206.546ZM198.282 27V10.2H196.282V27H198.282ZM197.282 11.2H207.866V9.2H197.282V11.2ZM206.866 10.2V12.696H208.866V10.2H206.866ZM207.866 11.696H199.874V13.696H207.866V11.696ZM198.874 12.696V24.504H200.874V12.696H198.874ZM199.874 25.504H207.866V23.504H199.874V25.504ZM206.866 24.504V27H208.866V24.504H206.866ZM207.866 26H197.282V28H207.866V26ZM199.458 19.632V17.136H197.458V19.632H199.458ZM198.458 18.136H206.546V16.136H198.458V18.136ZM205.546 17.136V19.632H207.546V17.136H205.546ZM206.546 18.632H198.458V20.632H206.546V18.632ZM215.216 27H214.216V28H215.216V27ZM215.216 12.696H216.216V11.696H215.216V12.696ZM210.512 12.696H209.512V13.696H210.512V12.696ZM210.512 10.2V9.2H209.512V10.2H210.512ZM222.656 10.2H223.656V9.2H222.656V10.2ZM222.656 12.696V13.696H223.656V12.696H222.656ZM217.808 12.696V11.696H216.808V12.696H217.808ZM217.808 27V28H218.808V27H217.808ZM216.216 27V12.696H214.216V27H216.216ZM215.216 11.696H210.512V13.696H215.216V11.696ZM211.512 12.696V10.2H209.512V12.696H211.512ZM210.512 11.2H222.656V9.2H210.512V11.2ZM221.656 10.2V12.696H223.656V10.2H221.656ZM222.656 11.696H217.808V13.696H222.656V11.696ZM216.808 12.696V27H218.808V12.696H216.808ZM217.808 26H215.216V28H217.808V26Z" fill="black"/>
<path d="M13.7036 27.3262C18.2167 27.2324 21.8132 24.1364 21.9777 19.3283C22.4243 21.3219 23.2941 23.081 24.2578 24.5821C21.5546 26.6696 18.9924 27.6077 16.3128 27.6077C15.3961 27.6077 14.5499 27.5138 13.7036 27.3262Z" fill="#010045"/>
<path d="M51.8775 18.9294C51.8775 19.3751 51.5954 19.68 51.1488 19.68H50.1146L50.1615 19.0232C50.3497 16.3964 49.7854 14.6138 48.6807 13.0424L51.1958 13.7695C51.7364 13.9572 51.8775 14.2151 51.8775 14.9188V18.9294Z" fill="#010045"/>
<path d="M0 14.9188C0 14.2151 0.141 13.9336 0.6581 13.7695L3.2908 13.0424C2.0921 14.7312 1.5043 17.0062 1.5983 18.9998L1.6454 19.68H0.7052C0.2821 19.68 0 19.3751 0 18.9294V14.9188Z" fill="#010045"/>
<path d="M9.09668 12.7843C10.46 11.0721 12.3875 10.2278 14.9026 10.2278C19.4628 10.2278 23.1062 12.9954 24.8692 17.6159L25.8094 20.0082C28.0895 25.989 31.0511 28.9677 34.5065 30.0701C29.1237 29.2726 24.8926 26.0594 23.1062 20.7822L22.307 18.3664C20.591 13.4176 17.9114 11.1659 13.6803 11.1659C11.9643 11.1659 10.272 11.7992 9.09668 12.7843Z" fill="#010045"/>
<path d="M40.4067 8.56281C45.766 9.26651 49.5975 13.3475 49.5975 18.2025C49.5975 22.4477 46.4007 25.8955 42.0521 26.2474C44.9669 24.4648 46.0716 22.0724 46.0716 18.8124C46.0716 14.1449 43.9092 10.0171 40.4067 8.56281Z" fill="#010045"/>
<path d="M31.3567 8.3047C29.2646 9.1491 27.5252 10.3687 25.9973 12.0574C23.9287 9.97 22.5889 9.1725 20.2383 8.3282L31.3567 8.3047Z" fill="#010045"/>
<path d="M26.3735 12.5502C29.2177 9.5949 32.7436 8 35.8464 8C39.7014 8 43.5328 10.5096 44.8726 15.0363C43.1097 12.0577 40.101 11.1663 37.9384 11.1663C33.6368 11.1663 29.8759 14.7548 29.8759 19.2581C28.9357 15.8572 27.4548 13.6291 26.3735 12.5502Z" fill="#010045"/>
<path d="M2.25684 19.5589C2.25684 13.0621 7.26364 8.5589 14.5268 8.5589C21.2025 8.5589 26.4679 12.1943 28.7245 18.3628L29.3826 20.286C31.2631 25.4459 34.3423 27.9087 38.879 27.9087C42.2638 27.9087 46.1893 26.7594 48.2109 24.4374C46.4949 28.3074 42.7339 30.5355 38.1503 30.5355C32.885 30.5355 29.03 27.0643 26.75 21.06L25.7157 18.3628C23.6471 13.0152 19.9098 10.0834 15.044 10.0834C9.54363 10.0834 5.78274 13.9768 5.78274 19.4651C5.78274 25.0706 9.91984 28.8467 16.1253 28.8467C18.1468 28.8467 19.9098 28.448 21.6727 27.6037C19.6982 29.5035 16.9009 30.5355 13.7982 30.5355C7.14603 30.5355 2.25684 25.8916 2.25684 19.5589Z" fill="#010045"/>
</svg>
